<svg width="100" height="73" viewBox="0 0 100 73" fill="none" xmlns="http://www.w3.org/2000/svg">
<g clip-path="url(#clip0)">
<path d="M99.1658 0H0.834202C0.373485 0 0 0.373485 0 0.834202V72.0772C0 72.5379 0.373485 72.9114 0.834202 72.9114H99.1658C99.6265 72.9114 100 72.5379 100 72.0772V0.834202C100 0.373485 99.6265 0 99.1658 0Z" fill="#282828"/>
<path d="M39.3702 35.4005H46.6897C46.5843 33.6453 46.1631 32.1357 45.4258 30.8719C44.6886 29.573 43.7232 28.5023 42.5296 27.6598C41.3712 26.7821 40.0371 26.1326 38.5276 25.7114C37.0532 25.2901 35.5085 25.0795 33.8937 25.0795C31.682 25.0795 29.7161 25.4481 27.996 26.1853C26.2758 26.9225 24.819 27.9582 23.6253 29.2922C22.4318 30.591 21.5189 32.1533 20.8871 33.9787C20.2903 35.7691 19.9919 37.7174 19.9919 39.8238C19.9919 41.8599 20.3254 43.7381 20.9925 45.4582C21.6594 47.1433 22.5898 48.6002 23.7833 49.8289C24.9769 51.0576 26.4162 52.0229 28.1012 52.725C29.8215 53.3921 31.6996 53.7255 33.7357 53.7255C37.3516 53.7255 40.318 52.7777 42.6349 50.8821C44.9519 48.9863 46.3562 46.2306 46.8476 42.6147H39.6334C39.3877 44.2997 38.7734 45.6513 37.7904 46.6693C36.8425 47.6523 35.4734 48.1438 33.6831 48.1438C32.5246 48.1438 31.5416 47.8805 30.7342 47.3539C29.9268 46.8273 29.2773 46.1604 28.7858 45.3529C28.3295 44.5103 27.996 43.5801 27.7854 42.562C27.5747 41.544 27.4694 40.5435 27.4694 39.5605C27.4694 38.5424 27.5747 37.5244 27.7854 36.5064C27.996 35.4532 28.347 34.5053 28.8385 33.6628C29.365 32.7851 30.0321 32.083 30.8395 31.5564C31.6469 30.9948 32.6474 30.7139 33.8411 30.7139C37.0356 30.7139 38.8787 32.2761 39.3702 35.4005Z" fill="#F9F9F9"/>
<path d="M72.2405 39.3499C72.2405 40.4733 72.1351 41.5616 71.9245 42.6148C71.7139 43.6679 71.3628 44.6157 70.8713 45.4582C70.3799 46.2657 69.7128 46.9152 68.8703 47.4066C68.0629 47.8981 67.0448 48.1438 65.8161 48.1438C64.6577 48.1438 63.6571 47.8981 62.8146 47.4066C62.0072 46.88 61.3226 46.2131 60.7609 45.4056C60.2343 44.563 59.8482 43.6153 59.6024 42.5621C59.3567 41.5089 59.2338 40.4557 59.2338 39.4026C59.2338 38.2792 59.3391 37.2085 59.5497 36.1905C59.7955 35.1373 60.1641 34.2069 60.6556 33.3995C61.1822 32.5921 61.8667 31.9427 62.7093 31.4511C63.5518 30.9597 64.5874 30.7139 65.8161 30.7139C67.0448 30.7139 68.0629 30.9597 68.8703 31.4511C69.6777 31.9427 70.3272 32.5921 70.8187 33.3995C71.3453 34.1719 71.7139 35.0846 71.9245 36.1378C72.1351 37.1558 72.2405 38.2265 72.2405 39.3499ZM72.3458 49.5656V53.041H79.4546V15.4431H71.9772V29.1343H71.8718C71.0293 27.8003 69.8708 26.7997 68.3963 26.1327C66.957 25.4306 65.4299 25.0795 63.8151 25.0795C61.8141 25.0795 60.0588 25.4833 58.5493 26.2907C57.0397 27.063 55.7759 28.0986 54.7579 29.3975C53.775 30.6964 53.0201 32.206 52.4935 33.9261C52.0021 35.6112 51.7564 37.3665 51.7564 39.1919C51.7564 41.0876 52.0021 42.9131 52.4935 44.6684C53.0201 46.4237 53.775 47.9859 54.7579 49.355C55.7759 50.689 57.0572 51.7597 58.602 52.5671C60.1466 53.3395 61.9369 53.7256 63.9731 53.7256C65.7635 53.7256 67.3608 53.4096 68.765 52.7777C70.2043 52.1108 71.3628 51.0401 72.2405 49.5656H72.3458Z" fill="#F9F9F9"/>
</g>
<defs>
<clipPath id="clip0">
<rect width="100" height="72.9927" fill="white"/>
</clipPath>
</defs>
</svg>
